<?xml version="1.0" encoding="UTF-8"?>
<svg width="100" height="100" viewBox="0 0 100 100" fill="none" xmlns="http://www.w3.org/2000/svg">
  <circle cx="50" cy="50" r="45" fill="#001219"/>
  <path d="M35 30H50C53.866 30 57 33.134 57 37V43C57 46.866 53.866 50 50 50H35V30Z" fill="#00E676"/>
  <path d="M25 30H35V50H25C21.134 50 18 46.866 18 43V37C18 33.134 21.134 30 25 30Z" fill="#0288D1"/>
  <path d="M31.1818 60C31.1818 54.4772 35.6589 50 41.1818 50H58.8182C64.3411 50 68.8182 54.4772 68.8182 60V70C68.8182 70 62 80 50 80C38 80 31.1818 70 31.1818 70V60Z" fill="#00E676" fill-opacity="0.2"/>
  <path d="M35 65L42 72.5M65 65L58 72.5M50 60V75" stroke="#00E676" stroke-width="2" stroke-linecap="round"/>
  <path d="M75 40C75 51.0457 66.0457 60 55 60H45C33.9543 60 25 51.0457 25 40" stroke="#0288D1" stroke-width="2" stroke-linecap="round" stroke-dasharray="4 4"/>
</svg>