<?xml version="1.0" encoding="UTF-8"?>
<svg width="120" height="40" viewBox="0 0 120 40" fill="none" xmlns="http://www.w3.org/2000/svg">
  <path d="M20 10H35C38.866 10 42 13.134 42 17V23C42 26.866 38.866 30 35 30H20V10Z" fill="#00E676"/>
  <path d="M10 10H20V30H10C6.134 30 3 26.866 3 23V17C3 13.134 6.134 10 10 10Z" fill="#0288D1"/>
  <path d="M52 12H56.38C58.34 12 59.3 13.04 59.3 14.72C59.3 16.36 58.34 17.44 56.38 17.44H54.04V21H52V12ZM56.12 15.92C56.72 15.92 57.18 15.42 57.18 14.72C57.18 14.02 56.72 13.52 56.12 13.52H54.04V15.92H56.12Z" fill="white"/>
  <path d="M62.6266 12H67.0066C68.9666 12 69.9266 13.04 69.9266 14.72C69.9266 15.86 69.4266 16.66 68.5066 17.1L70.2466 21H68.0466L66.6066 17.6H64.6666V21H62.6266V12ZM66.7466 15.92C67.3466 15.92 67.8066 15.42 67.8066 14.72C67.8066 14.02 67.3466 13.52 66.7466 13.52H64.6666V15.92H66.7466Z" fill="white"/>
  <path d="M76.4333 21.14C74.0733 21.14 72.3733 19.38 72.3733 16.5C72.3733 13.62 74.0733 11.86 76.4333 11.86C78.7933 11.86 80.4933 13.62 80.4933 16.5C80.4933 19.38 78.7933 21.14 76.4333 21.14ZM76.4333 19.32C77.6133 19.32 78.4133 18.3 78.4133 16.5C78.4133 14.7 77.6133 13.68 76.4333 13.68C75.2533 13.68 74.4533 14.7 74.4533 16.5C74.4533 18.3 75.2533 19.32 76.4333 19.32Z" fill="white"/>
  <path d="M88.8 21H86.76L86.36 19.66H82.74L82.34 21H80.3L83.28 12H85.84L88.8 21ZM85.98 17.94L84.54 13.82L83.12 17.94H85.98Z" fill="white"/>
  <path d="M90.7234 12H92.7634V21H90.7234V12Z" fill="white"/>
  <path d="M101.689 21H99.6094L96.3694 14.32V21H94.3294V12H96.5294L99.6494 18.48V12H101.689V21Z" fill="white"/>
  <path d="M107.874 21.14C105.514 21.14 103.814 19.38 103.814 16.5C103.814 13.62 105.514 11.86 107.874 11.86C110.234 11.86 111.934 13.62 111.934 16.5C111.934 19.38 110.234 21.14 107.874 21.14ZM107.874 19.32C109.054 19.32 109.854 18.3 109.854 16.5C109.854 14.7 109.054 13.68 107.874 13.68C106.694 13.68 105.894 14.7 105.894 16.5C105.894 18.3 106.694 19.32 107.874 19.32Z" fill="white"/>
</svg>